<?xml version="1.0" encoding="UTF-8" ?>
<!DOCTYPE svg PUBLIC "-//W3C//DTD SVG 1.1//EN" "http://www.w3.org/Graphics/SVG/1.1/DTD/svg11.dtd">
<svg width="500pt" height="259pt" viewBox="0 0 500 259" version="1.1" xmlns="http://www.w3.org/2000/svg">
<g id="#d800bcff">
<path fill="#d800bc" opacity="1.00" d=" M 17.40 10.73 C 22.24 10.10 27.14 10.46 32.00 10.45 C 178.36 10.43 324.72 10.46 471.08 10.42 C 474.19 10.56 477.70 10.60 480.15 12.83 C 484.56 16.17 485.02 23.29 481.26 27.27 C 478.22 30.71 473.31 31.20 469.00 31.19 C 463.20 31.30 457.28 30.15 451.58 31.60 C 448.02 32.59 448.60 37.04 448.19 39.90 C 446.86 74.45 436.05 108.48 417.81 137.81 C 399.01 167.99 372.17 193.16 340.63 209.61 C 336.41 212.02 331.42 213.39 327.98 216.97 C 325.72 224.98 328.66 233.54 326.43 241.59 C 324.86 246.21 319.76 248.80 315.07 248.67 C 271.72 248.60 228.36 248.58 185.01 248.67 C 179.46 248.60 172.90 249.73 168.45 245.57 C 164.49 242.27 165.07 236.60 165.07 231.98 C 165.01 226.91 165.96 221.58 164.25 216.71 C 161.42 213.93 157.51 212.67 154.07 210.82 C 118.84 193.03 89.32 164.39 69.87 130.09 C 56.01 105.38 47.28 77.76 44.74 49.53 C 44.27 44.76 44.36 39.93 43.58 35.19 C 43.36 33.53 42.47 31.74 40.62 31.51 C 32.14 29.63 23.22 32.75 14.83 30.05 C 9.47 28.34 6.86 21.38 9.42 16.45 C 10.71 13.18 13.96 11.05 17.40 10.73 M 84.37 64.30 C 80.21 65.88 78.01 71.48 80.67 75.26 C 83.54 80.33 92.33 79.40 93.99 73.79 C 96.29 68.23 89.95 61.69 84.37 64.30 M 119.43 64.36 C 114.91 66.18 113.34 72.69 116.78 76.25 C 120.27 80.45 128.08 78.87 129.47 73.50 C 131.54 67.90 124.87 61.65 119.43 64.36 M 155.41 64.37 C 149.21 65.63 148.58 75.23 154.18 77.74 C 158.85 80.63 165.66 76.50 165.17 71.00 C 165.32 66.16 159.79 62.75 155.41 64.37 M 190.34 64.20 C 185.06 66.05 183.82 74.33 188.81 77.25 C 192.78 80.35 199.46 77.95 200.33 72.93 C 201.77 67.50 195.54 62.03 190.34 64.20 M 225.48 64.46 C 220.77 66.34 219.38 73.28 223.35 76.61 C 227.25 80.53 234.83 78.25 235.83 72.79 C 237.23 67.21 230.71 61.54 225.48 64.46 M 261.36 64.26 C 257.17 65.85 254.89 71.46 257.67 75.26 C 260.51 80.41 269.13 79.26 270.84 73.74 C 273.20 68.28 266.89 61.66 261.36 64.26 M 296.41 64.32 C 291.35 66.28 290.13 74.18 294.79 77.24 C 298.90 80.55 305.73 77.69 306.53 72.55 C 307.92 67.10 301.46 61.87 296.41 64.32 M 332.35 64.18 C 327.85 65.62 325.48 71.62 328.47 75.51 C 331.73 80.65 340.95 78.92 341.82 72.79 C 343.23 67.53 337.49 62.14 332.35 64.18 M 367.36 64.24 C 363.13 65.82 360.94 71.48 363.63 75.29 C 366.53 80.36 375.27 79.30 377.00 73.77 C 379.33 68.24 372.90 61.70 367.36 64.24 M 402.43 64.32 C 398.20 66.08 396.37 72.01 399.28 75.69 C 402.51 80.36 410.93 79.04 412.40 73.49 C 414.63 67.87 407.85 61.59 402.43 64.32 M 102.46 99.54 C 96.63 100.85 95.48 109.48 100.32 112.66 C 104.47 115.93 111.30 113.07 112.04 107.89 C 113.21 102.63 107.45 97.84 102.46 99.54 M 137.53 99.64 C 132.24 101.01 130.98 108.60 134.92 112.09 C 138.89 115.99 146.64 113.57 147.38 107.94 C 148.61 102.54 142.53 97.88 137.53 99.64 M 173.48 99.51 C 167.42 100.59 166.18 109.63 171.10 112.85 C 175.38 115.71 182.15 113.03 182.75 107.75 C 183.79 102.71 178.35 97.97 173.48 99.51 M 208.51 99.59 C 203.13 100.88 201.48 108.77 205.83 112.16 C 209.78 115.90 217.45 113.47 218.02 107.90 C 219.18 102.74 213.44 97.83 208.51 99.59 M 244.44 99.43 C 239.57 100.46 236.99 106.95 240.09 110.95 C 243.04 115.45 250.90 114.66 252.92 109.67 C 255.79 104.45 249.92 97.99 244.44 99.43 M 279.47 99.51 C 274.89 100.74 272.51 106.78 275.29 110.71 C 278.32 115.82 287.40 114.61 288.75 108.75 C 290.49 103.45 284.70 97.85 279.47 99.51 M 315.38 99.33 C 310.69 100.26 307.82 106.31 310.50 110.41 C 313.29 115.83 322.52 114.64 324.04 108.80 C 325.98 103.67 320.61 97.95 315.38 99.33 M 350.43 99.40 C 345.65 100.53 342.94 106.91 346.18 110.88 C 349.32 115.90 358.21 114.31 359.46 108.53 C 361.10 103.32 355.64 97.82 350.43 99.40 M 385.44 99.47 C 380.99 100.81 378.59 106.74 381.35 110.63 C 384.37 115.80 393.31 114.49 394.82 108.73 C 396.83 103.40 390.69 97.63 385.44 99.47 M 119.35 135.23 C 114.71 136.94 113.32 143.69 116.90 147.10 C 120.77 151.62 129.43 148.86 129.78 142.86 C 130.67 137.42 124.28 132.69 119.35 135.23 M 154.44 135.32 C 149.25 137.39 148.93 145.63 153.73 148.34 C 158.30 151.35 165.47 147.60 165.18 142.01 C 165.37 136.77 159.08 132.75 154.44 135.32 M 190.34 135.15 C 185.01 136.96 184.02 145.18 188.81 148.16 C 193.06 151.22 200.02 148.31 200.44 142.97 C 201.47 137.64 195.23 132.83 190.34 135.15 M 225.34 135.18 C 220.73 137.22 219.70 144.14 223.50 147.44 C 227.47 151.46 235.52 148.59 235.80 142.87 C 236.67 137.44 230.22 132.72 225.34 135.18 M 261.34 135.11 C 256.91 136.56 254.90 142.42 257.73 146.21 C 260.83 151.47 269.82 149.63 271.10 143.83 C 272.83 138.43 266.49 132.79 261.34 135.11 M 296.34 135.18 C 291.06 137.01 290.28 145.10 294.94 148.06 C 299.40 151.50 306.83 147.58 306.67 142.00 C 306.93 136.93 300.87 133.07 296.34 135.18 M 331.39 135.28 C 326.34 137.20 325.79 144.87 330.11 147.86 C 334.49 151.57 342.34 147.81 341.99 142.00 C 342.35 136.76 335.94 132.94 331.39 135.28 M 366.49 135.41 C 361.15 137.66 361.34 146.18 366.51 148.52 C 371.06 151.21 377.68 147.34 377.41 142.00 C 377.70 136.67 371.06 132.68 366.49 135.41 M 173.37 170.21 C 168.09 171.54 166.20 179.14 170.23 182.78 C 173.97 186.48 181.32 184.69 182.54 179.44 C 184.40 174.21 178.60 168.37 173.37 170.21 M 208.40 170.35 C 203.52 171.97 201.53 178.99 205.36 182.64 C 209.19 186.72 217.16 184.53 218.04 178.89 C 219.54 173.52 213.53 168.17 208.40 170.35 M 243.45 170.46 C 237.96 172.26 237.09 180.96 242.17 183.75 C 246.63 186.51 253.37 183.35 253.63 177.98 C 254.32 172.76 248.24 168.18 243.45 170.46 M 279.37 170.23 C 273.72 171.56 272.34 179.74 276.84 183.16 C 281.10 186.90 288.78 183.62 288.97 177.93 C 289.56 172.96 284.05 168.68 279.37 170.23 M 314.40 170.35 C 309.14 171.90 307.84 179.61 312.02 183.02 C 316.01 186.54 323.33 184.26 324.25 178.90 C 325.56 173.53 319.52 168.31 314.40 170.35 Z" />
</g>
</svg>
